<?xml version="1.0" encoding="utf-8"?>
<!-- Generator: Adobe Illustrator 26.5.0, SVG Export Plug-In . SVG Version: 6.00 Build 0)  -->
<svg version="1.1" id="レイヤー_1" xmlns="http://www.w3.org/2000/svg" xmlns:xlink="http://www.w3.org/1999/xlink" x="0px"
	 y="0px" viewBox="0 0 1920 1080" style="enable-background:new 0 0 1920 1080;" xml:space="preserve">
<style type="text/css">
	.st0{fill:#68CFC3;}
	.st1{fill:#FBE481;}
</style>
<g>
	<polygon class="st0" points="485.7,497 473.9,331.7 622.9,404.1 	"/>
	<path class="st0" d="M474.4,332.5l147.5,71.8l-135.9,91.8L474.4,332.5 M473.4,330.9l11.8,167l138.7-93.8L473.4,330.9L473.4,330.9z"
		/>
</g>
<g>
	<polygon class="st1" points="636.4,570.3 624.7,405 773.7,477.4 	"/>
	<path class="st1" d="M625.3,405.8l147.5,71.8l-135.9,91.8L625.3,405.8 M624.1,404.2l11.8,167l138.7-93.8L624.1,404.2L624.1,404.2z"
		/>
</g>
<g>
	<polygon class="st0" points="184.7,350.4 172.9,185.2 321.9,257.6 	"/>
	<path class="st0" d="M173.6,186l147.5,71.8l-135.9,91.8L173.6,186 M172.4,184.3l11.9,167L323,257.5L172.4,184.3L172.4,184.3z"/>
</g>
<g>
	<polygon class="st1" points="335.5,423.7 323.7,258.4 472.8,330.9 	"/>
	<path class="st1" d="M324.3,259.3L471.8,331l-135.9,91.8L324.3,259.3 M323.2,257.6l11.9,167l138.7-93.8L323.2,257.6L323.2,257.6z"
		/>
</g>
<g>
	<polygon class="st0" points="787.1,643.7 775.3,478.4 924.3,550.8 	"/>
	<path class="st0" d="M775.9,479.2L923.3,551l-135.9,91.8L775.9,479.2 M774.7,477.6l11.8,167l138.7-93.8L774.7,477.6L774.7,477.6z"
		/>
</g>
<g>
	<polygon class="st1" points="937.8,717 926.1,551.7 1075.1,624.1 	"/>
	<path class="st1" d="M926.6,552.5l147.5,71.7l-135.8,91.9L926.6,552.5 M925.5,550.9l11.8,167l138.7-93.8L925.5,550.9L925.5,550.9z"
		/>
</g>
</svg>
