<?xml version="1.0" encoding="utf-8"?>
<!-- Generator: Adobe Illustrator 26.5.0, SVG Export Plug-In . SVG Version: 6.00 Build 0)  -->
<svg version="1.1" id="レイヤー_1" xmlns="http://www.w3.org/2000/svg" xmlns:xlink="http://www.w3.org/1999/xlink" x="0px"
	 y="0px" viewBox="0 0 1920 1080" style="enable-background:new 0 0 1920 1080;" xml:space="preserve">
<style type="text/css">
	.st0{fill:#68CFC3;}
	.st1{fill:#FBE481;}
</style>
<g>
	<polygon class="st0" points="625.6,404.1 774.6,331.7 762.8,497 	"/>
	<path class="st0" d="M774,332.5l-11.6,163.6l-135.9-91.8L774,332.5 M775.1,330.9l-150.5,73.2l138.7,93.8L775.1,330.9L775.1,330.9z"
		/>
</g>
<g>
	<polygon class="st1" points="474.8,477.4 623.8,405 612,570.3 	"/>
	<path class="st1" d="M623.2,405.8l-11.6,163.6l-135.9-91.8L623.2,405.8 M624.3,404.2l-150.5,73.2l138.7,93.8L624.3,404.2
		L624.3,404.2z"/>
</g>
<g>
	<polygon class="st0" points="926.5,257.6 1075.5,185.2 1063.8,350.4 	"/>
	<path class="st0" d="M1074.9,186l-11.6,163.6l-135.9-91.8L1074.9,186 M1076.1,184.3l-150.6,73.2l138.7,93.8L1076.1,184.3
		L1076.1,184.3z"/>
</g>
<g>
	<polygon class="st1" points="775.7,330.9 924.8,258.4 913,423.7 	"/>
	<path class="st1" d="M924.2,259.3l-11.6,163.6L776.7,331L924.2,259.3 M925.3,257.6l-150.6,73.2l138.7,93.8L925.3,257.6L925.3,257.6
		z"/>
</g>
<g>
	<polygon class="st0" points="324.2,550.8 473.2,478.4 461.4,643.7 	"/>
	<path class="st0" d="M472.6,479.2L461,642.8L325.2,551L472.6,479.2 M473.8,477.6l-150.5,73.2L462,644.6L473.8,477.6L473.8,477.6z"
		/>
</g>
<g>
	<polygon class="st1" points="173.4,624.1 322.4,551.7 310.6,717 	"/>
	<path class="st1" d="M321.9,552.5l-11.6,163.6l-135.8-91.9L321.9,552.5 M322.9,550.9l-150.5,73.2l138.7,93.8L322.9,550.9
		L322.9,550.9z"/>
</g>
</svg>
