<?xml version="1.0" encoding="UTF-8"?><svg id="_レイヤー_2" xmlns="http://www.w3.org/2000/svg" width="221.27" height="148.49" viewBox="0 0 221.27 148.49"><defs><style>.cls-1{fill:#f56132;}.cls-2{fill:#68cfc3;}.cls-3{fill:#fff;}.cls-4{fill:#ffbc0e;}.cls-5{fill:#dfeaef;}.cls-6{fill:#093f68;}.cls-7{fill:#70cc40;}</style></defs><g id="_レイヤー_1-2"><g id="_489_world_wide_web_outline"><path class="cls-2" d="M1.01,131.36H220.25v6.35c0,5.39-4.37,9.76-9.76,9.76H10.8c-5.39,.01-9.77-4.35-9.78-9.74,0,0,0-.01,0-.02v-6.35h0Z"/><path class="cls-6" d="M210.47,148.49H10.8C4.85,148.51,.01,143.69,0,137.74c0,0,0-.01,0-.02v-6.35c0-.56,.45-1.01,1.01-1.01H220.25c.56,0,1.01,.45,1.01,1.01v6.35c0,5.95-4.83,10.78-10.78,10.78,0,0-.01,0-.02,0ZM2.03,132.38v5.34c0,4.83,3.91,8.74,8.74,8.75H210.47c4.83-.01,8.73-3.92,8.74-8.75v-5.34H2.03Z"/><path class="cls-2" d="M24.48,1.01H196.79c4.79,0,8.67,3.88,8.67,8.67h0v121.68H15.81V9.68c0-4.79,3.88-8.67,8.67-8.67h0Z"/><path class="cls-6" d="M205.46,132.38H15.81c-.56,0-1.01-.45-1.01-1.01V9.68C14.8,4.34,19.14,0,24.48,0H196.79c5.35,0,9.68,4.34,9.68,9.68v121.68c0,.56-.45,1.01-1.01,1.01Zm-188.63-2.03H204.44V9.68c0-4.22-3.43-7.65-7.65-7.65H24.48c-4.22,0-7.65,3.43-7.65,7.65v120.66Z"/><rect class="cls-3" x="23.84" y="10.89" width="173.58" height="111.27" rx="2.62" ry="2.62"/><path class="cls-6" d="M194.81,123.17H26.46c-2,0-3.62-1.62-3.62-3.62,0,0,0,0,0-.01V13.51c0-2,1.61-3.63,3.61-3.63,0,0,0,0,.01,0H194.81c2,0,3.62,1.62,3.62,3.62h0V119.54c0,2-1.61,3.63-3.61,3.63,0,0,0,0-.01,0ZM26.46,11.91c-.88,0-1.59,.71-1.59,1.59,0,0,0,0,0,.01V119.54c0,.88,.7,1.6,1.58,1.6,0,0,0,0,.01,0H194.81c.88,0,1.59-.71,1.59-1.59,0,0,0,0,0-.01V13.51c0-.88-.7-1.6-1.58-1.6,0,0,0,0-.01,0H26.46Z"/><path class="cls-2" d="M101.17,131.36h18.94v1.09c0,2-1.62,3.62-3.62,3.62h-11.68c-2,0-3.62-1.62-3.62-3.62h0v-1.09h-.01Z"/><path class="cls-6" d="M116.47,137.1h-11.67c-2.57,0-4.65-2.08-4.65-4.65h0v-1.09c0-.56,.45-1.01,1.01-1.01h18.94c.56,0,1.01,.45,1.01,1.01v1.09c0,2.57-2.08,4.65-4.65,4.65h0Zm-14.29-4.72v.07c0,1.44,1.17,2.61,2.62,2.62h11.67c1.44,0,2.61-1.17,2.62-2.62v-.07h-16.91Z"/><circle class="cls-1" cx="34.19" cy="18.88" r="3.27"/><path class="cls-6" d="M34.19,23.16c-2.37,0-4.28-1.92-4.28-4.28,0-2.37,1.92-4.28,4.28-4.28,2.37,0,4.28,1.92,4.28,4.28h0c0,2.37-1.92,4.28-4.28,4.28Zm0-6.54c-1.24,0-2.25,1.01-2.25,2.25s1.01,2.25,2.25,2.25,2.25-1.01,2.25-2.25c0-1.24-.99-2.25-2.23-2.25,0,0-.01,0-.02,0Z"/><circle class="cls-4" cx="43.87" cy="18.88" r="3.27"/><path class="cls-6" d="M43.87,23.16c-2.37,0-4.28-1.93-4.27-4.29s1.93-4.28,4.29-4.27c2.36,0,4.27,1.92,4.27,4.28,0,2.37-1.93,4.28-4.29,4.28Zm0-6.54c-1.24,0-2.25,1.02-2.24,2.26,0,1.24,1.02,2.25,2.26,2.24,1.24,0,2.24-1.01,2.24-2.25,0-1.24-1.01-2.25-2.25-2.25,0,0,0,0-.01,0Z"/><circle class="cls-7" cx="53.56" cy="18.88" r="3.27"/><path class="cls-6" d="M53.56,23.16c-2.37,0-4.28-1.93-4.27-4.29s1.93-4.28,4.29-4.27c2.36,0,4.27,1.92,4.27,4.28,0,2.37-1.93,4.28-4.29,4.28Zm0-6.54c-1.24,0-2.25,1.02-2.24,2.26,0,1.24,1.02,2.25,2.26,2.24,1.24,0,2.24-1.01,2.24-2.25,0-1.24-1.01-2.25-2.25-2.25,0,0,0,0-.01,0Z"/><path class="cls-3" d="M156.66,66.53c.02,10.99-3.85,21.63-10.92,30.04-.81,1.01-1.67,1.93-2.58,2.83-18.16,18.38-47.78,18.55-66.16,.39-.13-.13-.26-.26-.39-.39-.9-.9-1.76-1.85-2.57-2.83-14.59-17.38-14.59-42.73,0-60.11,.81-.99,1.66-1.94,2.57-2.84,18.16-18.36,47.77-18.52,66.13-.35,.13,.12,.25,.25,.37,.37,.91,.9,1.77,1.85,2.58,2.84,7.09,8.41,10.97,19.05,10.96,30.04Z"/><path class="cls-6" d="M109.88,114.32c-12.78,.03-25.04-5.09-33.99-14.21-.92-.91-1.81-1.9-2.64-2.9-14.89-17.76-14.89-43.65,0-61.41,.82-1.01,1.71-1.97,2.63-2.89,18.54-18.78,48.79-18.98,67.56-.44,.15,.15,.29,.29,.44,.44,.91,.92,1.8,1.9,2.63,2.9,14.89,17.76,14.89,43.65,0,61.41-.81,1.01-1.71,2.03-2.63,2.9-8.96,9.12-21.22,14.23-34,14.2Zm0-93.56c-12.21-.03-23.92,4.87-32.48,13.59-.88,.88-1.73,1.81-2.51,2.76-14.3,17.02-14.3,41.85,0,58.87,.79,.95,1.63,1.89,2.52,2.76,17.77,17.98,46.74,18.15,64.72,.38,.13-.13,.25-.25,.38-.38,.88-.88,1.73-1.82,2.52-2.77,14.27-17.01,14.27-41.8,0-58.81-.79-1.01-1.63-1.89-2.51-2.77-8.59-8.77-20.37-13.69-32.64-13.63Z"/><path class="cls-6" d="M109.88,114.32c-12.78,.03-25.04-5.09-33.99-14.21-.92-.91-1.81-1.9-2.64-2.9-.17-.21-.25-.48-.22-.75,.03-.27,.17-.52,.39-.69,1.01-.81,1.85-1.43,2.63-2.03,9.01-6.32,21.03-9.8,33.84-9.8s24.83,3.48,33.84,9.8c.79,.56,1.6,1.18,2.64,2.03,.21,.17,.35,.42,.38,.69,.03,.27-.05,.54-.22,.75-.82,1.01-1.72,2.03-2.64,2.91-8.96,9.11-21.21,14.23-33.99,14.2Zm-34.39-17.59c.59,.67,1.2,1.33,1.84,1.96,17.77,17.98,46.74,18.15,64.72,.38,.13-.13,.25-.25,.38-.38,.64-.64,1.25-1.3,1.84-1.97-.63-.49-1.18-.9-1.72-1.28-8.68-6.09-20.3-9.44-32.67-9.44s-23.99,3.35-32.66,9.44c-.54,.39-1.1,.8-1.73,1.29h0Z"/><path class="cls-6" d="M109.88,49.07c-12.79,0-24.81-3.48-33.85-9.82-.89-.62-1.78-1.3-2.62-2.03-.43-.36-.48-.99-.13-1.42,.82-1.01,1.71-2.03,2.63-2.9,18.54-18.78,48.79-18.98,67.56-.44,.15,.15,.29,.29,.44,.44,.91,.92,1.8,1.9,2.63,2.9,.35,.43,.29,1.06-.13,1.42-.84,.71-1.73,1.39-2.62,2.03-9.09,6.33-21.12,9.82-33.91,9.82Zm-34.38-12.74c.55,.45,1.12,.86,1.68,1.26,8.71,6.09,20.3,9.45,32.69,9.45s23.98-3.36,32.69-9.45c.57-.4,1.14-.81,1.7-1.26-.6-.68-1.22-1.34-1.85-2.03-17.75-17.97-46.71-18.14-64.68-.39-.13,.13-.26,.26-.39,.39-.64,.69-1.23,1.38-1.85,2.03Z"/><path class="cls-6" d="M109.87,114.32c-15.34,0-27.81-21.44-27.81-47.8s12.47-47.79,27.81-47.79,27.82,21.44,27.82,47.79-12.47,47.8-27.82,47.8Zm0-93.55c-14.21,0-25.78,20.52-25.78,45.76s11.56,45.77,25.78,45.77,25.79-20.53,25.79-45.77-11.57-45.76-25.79-45.76Z"/><path class="cls-6" d="M156.64,67.54H63.11c-.56,0-1.01-.45-1.01-1.01s.45-1.01,1.01-1.01h93.53c.56,0,1.01,.45,1.01,1.01s-.45,1.01-1.01,1.01h0Z"/><path class="cls-6" d="M109.87,114.32c-.56,0-1.01-.45-1.01-1.01V19.75c0-.56,.45-1.01,1.01-1.01s1.01,.45,1.01,1.01V113.3c0,.56-.45,1.01-1.01,1.01Z"/><rect class="cls-2" x="54.88" y="57.1" width="110.01" height="18.84" rx="5.71" ry="5.71"/><path class="cls-6" d="M159.17,76.96H60.59c-3.71,0-6.71-3.01-6.72-6.72v-7.43c0-3.71,3.01-6.71,6.72-6.72h98.59c3.71,0,6.72,3.01,6.73,6.72v7.43c0,3.71-3.02,6.72-6.73,6.72ZM60.59,58.12c-2.59,0-4.69,2.1-4.69,4.69v7.43c0,2.59,2.1,4.69,4.69,4.69h98.59c2.59,0,4.69-2.1,4.7-4.69v-7.43c0-2.59-2.11-4.69-4.7-4.69H60.59Z"/><path class="cls-6" d="M89.13,61.94h2.22l1.47,5.89h0l1.92-5.89h1.88l1.91,6.04h0l1.54-6.04h2.03l-2.69,9.13h-1.8l-2.03-6.35h0l-2.03,6.35h-1.74l-2.69-9.13Z"/><path class="cls-6" d="M103.38,61.94h2.18l1.46,5.89h0l1.92-5.89h1.88l1.9,6.04h0l1.54-6.04h2.03l-2.68,9.13h-1.8l-2.03-6.35h0l-2.03,6.35h-1.74l-2.64-9.13Z"/><path class="cls-6" d="M117.63,61.94h2.2l1.46,5.89h0l1.92-5.89h1.88l1.9,6.04h0l1.54-6.04h2.03l-2.68,9.13h-1.8l-2.03-6.35h0l-2.03,6.35h-1.74l-2.66-9.13Z"/><polygon class="cls-3" points="165.87 74.82 144.74 67.4 142.86 89.72 149.34 85.52 160.38 102.59 170.45 96.07 159.4 79.01 165.87 74.82"/><path class="cls-6" d="M160.37,103.6c-.07,0-.14,0-.21,0-.26-.06-.49-.21-.64-.44l-10.5-16.24-5.62,3.64c-.33,.21-.75,.21-1.08,0-.33-.2-.52-.57-.49-.95l1.88-22.33c.02-.31,.19-.6,.46-.77,.27-.17,.6-.21,.89-.1l21.13,7.42c.37,.12,.63,.45,.68,.83,.06,.4-.12,.8-.46,1.01l-5.61,3.64,10.5,16.24c.3,.47,.17,1.09-.29,1.4l-10.07,6.52c-.17,.1-.37,.14-.57,.12Zm-11.05-19.09c.35,0,.67,.17,.86,.47l10.5,16.24,8.36-5.41-10.51-16.24c-.14-.23-.19-.5-.13-.76,.06-.26,.21-.49,.44-.64l4.74-3.04-17.95-6.3-1.59,18.95,4.73-3.04c.16-.13,.36-.2,.56-.21h-.01Z"/><path class="cls-5" d="M50.29,88.99h-14.89c-.56,0-1.01-.45-1.01-1.01s.45-1.01,1.01-1.01h14.89c.56,0,1.01,.45,1.01,1.01s-.45,1.01-1.01,1.01Z"/><path class="cls-5" d="M58.56,98.89h-23.15c-.56,0-1.01-.45-1.01-1.01s.45-1.01,1.01-1.01h23.15c.56,0,1.01,.45,1.01,1.01s-.45,1.01-1.01,1.01Z"/><path class="cls-5" d="M68.46,108.76H35.4c-.56,0-1.01-.45-1.01-1.01s.45-1.01,1.01-1.01h33.06c.56,0,1.01,.45,1.01,1.01s-.45,1.01-1.01,1.01Z"/><path class="cls-5" d="M186.01,26.88h-18.86c-.56,0-1.01-.45-1.01-1.01s.45-1.01,1.01-1.01h18.86c.56,0,1.01,.45,1.01,1.01s-.45,1.01-1.01,1.01h0Z"/><path class="cls-5" d="M186.01,34.91h-18.86c-.56,0-1.01-.45-1.01-1.01s.45-1.01,1.01-1.01h18.86c.56,0,1.01,.45,1.01,1.01s-.45,1.01-1.01,1.01h0Z"/><path class="cls-5" d="M186.01,108.76h-14c-.56,0-1.01-.45-1.01-1.01s.45-1.01,1.01-1.01h14c.56,0,1.01,.45,1.01,1.01s-.45,1.01-1.01,1.01Z"/></g></g></svg>