<?xml version="1.0" encoding="UTF-8"?><svg id="_レイヤー_2" xmlns="http://www.w3.org/2000/svg" width="193.81" height="173.36" viewBox="0 0 193.81 173.36"><defs><style>.cls-1{fill:#f56132;}.cls-2{fill:#68cfc3;}.cls-3{fill:#fff;}.cls-4{fill:#ffbc0e;}.cls-5{fill:#dfeaef;}.cls-6{fill:#093f68;}.cls-7{fill:#70cc40;}</style></defs><g id="_レイヤー_1-2"><g id="_534_content_creation_outline"><rect class="cls-2" x="8.37" y="1.01" width="139.56" height="154.22"/><path class="cls-6" d="M147.93,156.26H8.37c-.56,0-1.01-.45-1.01-1.01V1.01c0-.56,.45-1.01,1.01-1.01H147.93c.56,0,1.01,.45,1.01,1.01V155.3c-.03,.54-.47,.96-1.01,.96Zm-138.55-2.03H146.91V2.03H9.38V154.23Z"/><polygon class="cls-3" points="160.68 172.35 25.04 172.35 25.04 36.04 49.12 13.74 160.68 13.74 160.68 172.35"/><path class="cls-6" d="M160.68,173.36H25.04c-.56,0-1.01-.45-1.01-1.01V36.04c0-.28,.12-.55,.32-.74L48.43,12.97c.19-.17,.44-.27,.69-.26h111.56c.56,0,1.01,.45,1.01,1.01V172.35c0,.56-.45,1.01-1.01,1.01Zm-134.62-2.03H159.66V14.76H49.51l-23.46,21.73V171.33Z"/><polygon class="cls-3" points="25.04 36.04 48.84 36.04 49.12 13.74 25.04 36.04"/><path class="cls-6" d="M48.84,37.06H25.04c-.56,0-1.01-.46-1.01-1.02,0-.28,.12-.55,.32-.74L48.43,12.97c.41-.38,1.05-.36,1.43,.05,.18,.19,.28,.45,.27,.71l-.27,22.33c-.01,.55-.46,.99-1.01,.99Zm-21.21-2.03h20.21l.23-18.94-20.44,18.94Z"/><path class="cls-5" d="M142.58,55.52H57.62c-.56,0-1.01-.45-1.01-1.01s.45-1.01,1.01-1.01h84.96c.56,0,1.01,.45,1.01,1.01s-.45,1.01-1.01,1.01Z"/><path class="cls-5" d="M112.66,69.64H43.17c-.56,0-1.01-.45-1.01-1.01s.45-1.01,1.01-1.01H112.66c.56,0,1.01,.45,1.01,1.01s-.45,1.01-1.01,1.01h0Z"/><path class="cls-5" d="M142.58,83.76H40.55c-.56,0-1.01-.45-1.01-1.01s.45-1.01,1.01-1.01h102.03c.56,0,1.01,.45,1.01,1.01s-.45,1.01-1.01,1.01Z"/><path class="cls-5" d="M142.58,97.85H76.09c-.56,0-1.01-.45-1.01-1.01s.45-1.01,1.01-1.01h66.49c.56,0,1.01,.45,1.01,1.01s-.45,1.01-1.01,1.01Z"/><path class="cls-5" d="M65.95,97.85h-13.19c-.56,0-1.01-.45-1.01-1.01s.45-1.01,1.01-1.01h13.19c.56,0,1.01,.45,1.01,1.01s-.45,1.01-1.01,1.01Z"/><path class="cls-5" d="M142.58,112h-29.92c-.56,0-1.01-.45-1.01-1.01s.45-1.01,1.01-1.01h29.92c.56,0,1.01,.45,1.01,1.01s-.45,1.01-1.01,1.01Z"/><path class="cls-5" d="M105.02,112H43.11c-.56,0-1.01-.45-1.01-1.01s.45-1.01,1.01-1.01h61.91c.56,0,1.01,.45,1.01,1.01s-.45,1.01-1.01,1.01Z"/><path class="cls-5" d="M142.58,126.11h-16.14c-.56,0-1.01-.45-1.01-1.01s.45-1.01,1.01-1.01h16.14c.56,0,1.01,.45,1.01,1.01s-.45,1.01-1.01,1.01Z"/><path class="cls-5" d="M119.46,126.11h-23.1c-.56,0-1.01-.45-1.01-1.01s.45-1.01,1.01-1.01h23.1c.56,0,1.01,.45,1.01,1.01s-.45,1.01-1.01,1.01Z"/><path class="cls-5" d="M88.03,126.11h-18.46c-.56,0-1.01-.45-1.01-1.01s.45-1.01,1.01-1.01h18.46c.56,0,1.01,.45,1.01,1.01s-.45,1.01-1.01,1.01h0Z"/><path class="cls-5" d="M62.33,126.11h-19.16c-.56,0-1.01-.45-1.01-1.01s.45-1.01,1.01-1.01h19.16c.56,0,1.01,.45,1.01,1.01s-.45,1.01-1.01,1.01Z"/><path class="cls-5" d="M122.43,140.23H57.62c-.56,0-1.01-.45-1.01-1.01s.45-1.01,1.01-1.01H122.43c.56,0,1.01,.45,1.01,1.01s-.45,1.01-1.01,1.01Z"/><path class="cls-5" d="M134.46,69.64h-8.12c-.56,0-1.01-.45-1.01-1.01s.45-1.01,1.01-1.01h8.12c.56,0,1.01,.45,1.01,1.01s-.45,1.01-1.01,1.01Z"/><path class="cls-5" d="M142.58,33.44h-29.92c-.56,0-1.01-.45-1.01-1.01s.45-1.01,1.01-1.01h29.92c.56,0,1.01,.45,1.01,1.01s-.45,1.01-1.01,1.01Z"/><path class="cls-3" d="M111.73,92.61h72.41v53c0,1.92-1.55,3.47-3.47,3.47H115.17c-1.92,0-3.47-1.55-3.47-3.47v-53h.03Z"/><path class="cls-6" d="M180.67,150.1H115.17c-2.48,0-4.48-2.01-4.49-4.49v-53c0-.56,.45-1.01,1.01-1.01h72.49c.56,0,1.01,.45,1.01,1.01v53c0,2.48-2.02,4.49-4.51,4.49-.01,0-.02,0-.03,0Zm-67.92-56.47v51.99c0,1.35,1.1,2.45,2.46,2.46h65.47c1.35,0,2.45-1.1,2.46-2.46v-51.99H112.75Z"/><path class="cls-4" d="M115.17,86.3h65.46c1.92,0,3.47,1.55,3.47,3.47h0v2.84H111.73v-2.88c.02-1.89,1.55-3.41,3.44-3.43Z"/><path class="cls-6" d="M184.19,93.62H111.73c-.56,0-1.01-.45-1.01-1.01v-2.88c0-2.48,2.01-4.49,4.49-4.49h65.47c2.48-.02,4.51,1.97,4.54,4.46,0,.01,0,.02,0,.03v2.84c.02,.56-.41,1.03-.97,1.05-.01,0-.03,0-.04,0Zm-71.4-2.03h70.38v-1.87c0-1.36-1.1-2.46-2.46-2.46H115.17c-1.36,0-2.46,1.1-2.46,2.46l.08,1.87Z"/><polygon class="cls-4" points="136.89 130.7 136.89 101.86 164.91 116.28 136.89 130.7"/><path class="cls-6" d="M136.89,131.72c-.19,0-.37-.05-.53-.14-.3-.19-.49-.52-.49-.87v-28.8c0-.56,.46-1.01,1.02-1.01,.16,0,.31,.04,.45,.11l28.03,14.42c.34,.17,.55,.52,.55,.9,0,.38-.21,.73-.55,.9l-28.03,14.42c-.15,.06-.3,.08-.46,.06Zm1.01-28.2v25.52l24.79-12.76-24.79-12.76Z"/><path class="cls-6" d="M174.92,141.34h-53.96c-.56,0-1.01-.45-1.01-1.01s.45-1.01,1.01-1.01h53.96c.56,0,1.01,.45,1.01,1.01s-.45,1.01-1.01,1.01Z"/><circle class="cls-6" cx="163.15" cy="140.32" r="3.17"/><path class="cls-6" d="M163.15,144.54c-2.31,0-4.18-1.87-4.18-4.18s1.87-4.18,4.18-4.18c2.31,0,4.18,1.87,4.18,4.18h0c0,2.31-1.87,4.18-4.18,4.18Zm0-6.33c-1.19,0-2.15,.96-2.15,2.15s.96,2.15,2.15,2.15c1.19,0,2.15-.96,2.15-2.15h0c.02-1.19-.93-2.17-2.12-2.18-.01,0-.02,0-.03,0v.03Z"/><rect class="cls-7" x="133.52" y="29.19" width="59.28" height="44.16"/><path class="cls-6" d="M192.79,74.38h-59.28c-.56,0-1.01-.45-1.01-1.01V29.19c0-.56,.45-1.01,1.01-1.01h59.28c.56,0,1.01,.45,1.01,1.01v44.17c0,.56-.45,1.01-1.01,1.01Zm-58.26-2.03h57.25V30.21h-57.25v42.14Z"/><path class="cls-6" d="M133.52,62c-.34,0-.65-.17-.84-.45-.31-.46-.19-1.1,.27-1.41,0,0,0,0,0,0l27.51-18.46c.36-.26,.84-.26,1.2,0l21.68,17.32c.43,.35,.5,.99,.15,1.42-.35,.44-.98,.51-1.42,.16l-21.1-16.85-26.88,18.05c-.16,.13-.36,.21-.57,.22Z"/><path class="cls-6" d="M192.79,54.36c-.23,0-.45-.07-.63-.21l-9.4-7.36-7.48,7.29c-.4,.39-1.05,.38-1.44-.03s-.38-1.05,.03-1.44h0l8.12-7.91c.36-.35,.93-.38,1.33-.07l10.1,7.91c.44,.34,.52,.98,.18,1.42-.19,.25-.49,.39-.81,.39Z"/><circle class="cls-1" cx="173.79" cy="39.7" r="4.3"/><path class="cls-6" d="M173.79,45.01c-2.94,0-5.32-2.37-5.33-5.31s2.37-5.32,5.31-5.33c2.94,0,5.32,2.37,5.33,5.31v.02c0,2.93-2.38,5.3-5.31,5.31Zm0-8.6c-1.82,0-3.29,1.46-3.3,3.28s1.46,3.29,3.28,3.3c1.82,0,3.29-1.46,3.3-3.28,0,0,0,0,0-.01,0-1.81-1.47-3.28-3.28-3.29Z"/><rect class="cls-1" x="14.23" y="61.6" width="10.95" height="71.78" transform="translate(-35.54 14.78) rotate(-22.31)"/><path class="cls-6" d="M28.26,133.8c-.13,0-.26-.02-.39-.07-.25-.11-.45-.31-.55-.56L.08,66.77c-.11-.25-.11-.53,0-.78,.1-.25,.3-.45,.55-.55l10.15-4.16c.52-.21,1.11,.04,1.32,.56l27.24,66.46c.21,.52-.04,1.11-.56,1.32l-10.15,4.16c-.12,.03-.25,.04-.38,.02ZM2.34,66.93l26.48,64.53,8.26-3.39L10.63,63.54l-8.29,3.39Z"/><polygon class="cls-3" points="38.4 128.62 39.49 138.46 40.55 148.3 34.41 140.54 28.26 132.78 38.4 128.62"/><path class="cls-6" d="M40.55,149.32c-.31,0-.61-.14-.8-.39l-12.29-15.56c-.2-.25-.26-.58-.18-.88,.08-.31,.3-.56,.6-.68l10.15-4.16c.29-.12,.63-.1,.9,.06,.28,.16,.46,.44,.5,.76l2.14,19.68c.03,.44-.22,.85-.62,1.01-.12,.08-.25,.13-.4,.15Zm-10.64-16.11l9.27,11.7-1.62-14.84-7.64,3.14Z"/><polygon class="cls-6" points="39.49 138.46 40.55 148.3 34.41 140.54 39.49 138.46"/><path class="cls-6" d="M40.55,149.32c-.31,0-.61-.14-.8-.39l-6.14-7.76c-.34-.44-.27-1.08,.18-1.42,.07-.06,.15-.1,.24-.14l5.07-2.03c.29-.12,.63-.1,.9,.06,.27,.16,.45,.45,.49,.76l1.07,9.85c.03,.44-.22,.85-.62,1.01-.12,.05-.25,.07-.39,.06Zm-4.55-8.35l3.12,3.95-.54-5-2.58,1.06Z"/></g></g></svg>