<?xml version="1.0" encoding="UTF-8"?><svg id="_レイヤー_2" xmlns="http://www.w3.org/2000/svg" width="214.08" height="157.91" viewBox="0 0 214.08 157.91"><defs><style>.cls-1{fill:#f56132;}.cls-2{fill:#68cfc3;}.cls-3{fill:#fff;}.cls-4{fill:#ffbc0e;}.cls-5{fill:#dfeaef;}.cls-6{fill:#093f68;}.cls-7{fill:#70cc40;}</style></defs><g id="_レイヤー_1-2"><g id="_529_campaign_launch_outline"><path class="cls-3" d="M213.07,35.22v116.21c0,3.02-2.45,5.47-5.47,5.47H6.49c-3.02,0-5.47-2.45-5.47-5.47V35.22H213.07Z"/><path class="cls-6" d="M207.6,157.9H6.49c-3.58,0-6.47-2.9-6.49-6.48V35.22c0-.56,.45-1.01,1.01-1.01H213.07c.56,0,1.01,.45,1.01,1.01v116.21c-.01,3.58-2.91,6.47-6.49,6.48ZM2.03,36.23v115.19c0,2.46,2,4.45,4.46,4.46H207.6c2.46,0,4.45-2,4.46-4.46V36.23H2.03Z"/><path class="cls-2" d="M6.49,19.72H207.61c3.02,0,5.47,2.45,5.47,5.47h0v10.04H1.03v-10.04c0-3.02,2.44-5.47,5.46-5.47Z"/><path class="cls-6" d="M213.07,36.23H1.03c-.56,0-1.01-.45-1.01-1.01v-10.03c0-3.58,2.9-6.48,6.48-6.49H207.61c3.58,0,6.48,2.91,6.48,6.49v10.03c0,.56-.45,1.01-1.01,1.02h0ZM2.04,34.2H212.05v-9.01c0-2.46-1.99-4.45-4.45-4.46H6.49c-2.46,0-4.45,2-4.45,4.46v9.01Z"/><path class="cls-2" d="M193.92,156.89H20.18c1.35-2.79,2.86-5.49,4.52-8.12,17.63-28.54,48.8-45.9,82.35-45.85,1.29,0,2.58,0,3.86,.08,35.45,1.42,67.29,22.09,83.02,53.89Z"/><path class="cls-6" d="M193.92,157.9H20.18c-.35,0-.68-.18-.86-.48-.18-.31-.18-.7,0-1.01,1.38-2.82,2.91-5.56,4.57-8.22,17.82-28.84,49.33-46.37,83.23-46.31,1.45,0,2.73,0,3.9,.08,35.82,1.44,67.99,22.32,83.88,54.44,.18,.31,.18,.7,0,1.01-.2,.34-.58,.53-.97,.49Zm-172.09-2.03H192.3c-15.83-30.67-46.92-50.47-81.4-51.86-1.15-.06-2.4-.08-3.82-.08-33.2-.06-64.04,17.12-81.48,45.36-1.39,2.13-2.64,4.36-3.82,6.58h.04Z"/><circle class="cls-1" cx="12.65" cy="26.7" r="2.39"/><path class="cls-6" d="M12.65,24.33c1.32,0,2.39,1.07,2.39,2.39,0,1.32-1.07,2.39-2.39,2.39-1.32,0-2.39-1.07-2.39-2.39,0,0,0,0,0-.01,0-1.31,1.06-2.38,2.38-2.38,0,0,0,0,.01,0m0-2.03c-2.44,0-4.42,1.97-4.43,4.41,0,2.44,1.97,4.42,4.41,4.43,2.44,0,4.42-1.97,4.43-4.41,0,0,0-.01,0-.02,0-2.43-1.97-4.4-4.41-4.41Z"/><circle class="cls-4" cx="23.6" cy="26.7" r="2.39"/><path class="cls-6" d="M23.6,24.33c1.32,0,2.39,1.07,2.39,2.39,0,1.32-1.07,2.39-2.39,2.39-1.32,0-2.39-1.07-2.39-2.39,0,0,0,0,0-.01,0-1.31,1.07-2.38,2.39-2.38m0-2.03c-2.44,0-4.42,1.98-4.42,4.42,0,2.44,1.98,4.42,4.42,4.42,2.44,0,4.42-1.98,4.42-4.42,0,0,0,0,0-.01,0-2.43-1.98-4.41-4.42-4.41Z"/><circle class="cls-7" cx="34.55" cy="26.7" r="2.39"/><path class="cls-6" d="M34.55,24.33c1.32,0,2.39,1.06,2.4,2.38,0,1.32-1.06,2.39-2.38,2.4-1.32,0-2.39-1.06-2.4-2.38,0,0,0-.01,0-.02,0-1.31,1.07-2.37,2.38-2.38m0-2.03c-2.44,0-4.42,1.98-4.42,4.42,0,2.44,1.98,4.42,4.42,4.42,2.44,0,4.42-1.98,4.42-4.42,0,0,0,0,0-.01,0-2.43-1.98-4.41-4.42-4.41Z"/><path class="cls-7" d="M77.61,111.67c-.15,6.2-2.83,12.06-7.41,16.24-3.94,3.54-9.23,5.83-11.8,10.45-3.04,5.5-1.5,13.02-3.73,18.55H31.65c-2.44-2.01-4.56-4.38-6.3-7.01-.23-.38-.45-.75-.65-1.12,12.1-19.51,30.72-34.1,52.56-41.18,.26,1.34,.38,2.7,.36,4.06Z"/><path class="cls-6" d="M54.66,157.9H31.65c-.25,0-.49-.09-.68-.25-2.51-2.08-4.7-4.52-6.5-7.25-.23-.39-.45-.77-.67-1.16-.18-.31-.18-.7,0-1.01,12.22-19.72,31.04-34.46,53.1-41.61,.28-.09,.58-.06,.83,.09,.25,.15,.42,.4,.48,.68,.27,1.42,.4,2.86,.37,4.3-.18,6.46-2.97,12.58-7.74,16.94-1.4,1.22-2.87,2.36-4.39,3.41-2.86,2.03-5.57,3.94-7.1,6.78s-1.85,6.36-2.12,9.78c-.09,2.95-.61,5.87-1.55,8.66-.16,.41-.57,.67-1,.64Zm-22.62-2.03h21.91c.68-2.42,1.08-4.92,1.18-7.43,.29-3.63,.59-7.4,2.36-10.61s4.83-5.39,7.76-7.45c1.48-1.01,2.9-2.1,4.25-3.27,4.37-3.98,6.93-9.56,7.1-15.47h0c.02-.91-.03-1.82-.14-2.73-20.96,7.06-38.85,21.14-50.63,39.86,.1,.19,.21,.38,.33,.56,1.62,2.46,3.59,4.66,5.86,6.54Z"/><path class="cls-7" d="M193.92,156.89h-19.45c-1.57-2.07-3.38-3.93-5.41-5.55-2.21-1.68-4.99-3.23-5.55-5.95-1.1-5.28-.12-6.5-5.57-8.01-3.14-1-6.47-1.3-9.73-.86-3.99,.67-6.82,2.12-10.74-.35-3.34-2.16-5.23-5.96-4.94-9.93,.36-4.15,3.11-8.29,1.63-12.18-.51-1.33-1.5-2.55-1.51-3.98-.07-6.66,13.98,1.23,16.47,2.44,19.45,9.41,35.21,25.02,44.8,44.38h0Z"/><path class="cls-6" d="M193.92,157.9h-19.45c-.31,0-.61-.14-.8-.39-1.51-2-3.27-3.81-5.23-5.38-.36-.27-.73-.54-1.12-.81-2.03-1.44-4.27-3.04-4.81-5.73-.2-1.01-.35-1.83-.46-2.56-.49-3.04-.57-3.61-4.39-4.68-3-.96-6.17-1.25-9.29-.83-.78,.12-1.5,.28-2.2,.44-2.96,.65-5.76,1.27-9.26-.93-3.65-2.36-5.73-6.53-5.41-10.87,.19-1.61,.55-3.2,1.07-4.74,.74-2.49,1.44-4.84,.63-6.99-.17-.42-.36-.82-.57-1.22-.59-.94-.93-2.01-1.01-3.12-.1-1.21,.47-2.38,1.49-3.04,2.98-1.84,9.49,1.01,15.46,4.06l1.01,.5c19.65,9.51,35.57,25.28,45.26,44.83,.18,.31,.18,.7,0,1.01-.2,.31-.56,.48-.92,.46Zm-18.96-2.03h17.25c-9.55-18.48-24.83-33.37-43.55-42.45l-1.01-.52c-7.34-3.76-11.87-5.17-13.46-4.18-.15,.09-.55,.33-.54,1.34,.08,.79,.35,1.55,.78,2.21,.25,.46,.47,.93,.66,1.42,1.01,2.79,.22,5.59-.58,8.29-.48,1.41-.82,2.86-1.01,4.33-.25,3.59,1.46,7.03,4.48,8.98,2.79,1.76,4.86,1.3,7.73,.67,.73-.16,1.49-.32,2.29-.47,3.41-.46,6.87-.16,10.15,.88,4.83,1.35,5.28,2.68,5.86,6.31,.11,.71,.23,1.52,.44,2.47,.39,1.89,2.14,3.16,4.01,4.51,.4,.28,.78,.56,1.16,.84,1.99,1.56,3.79,3.36,5.35,5.35Z"/><path class="cls-7" d="M82.11,137.28c-.25-7.1-7.19-1.82-8.97,1.01-1.38,2.16-6.17,4.97-3.2,7.58,1.62,1.26,3.81,1.52,5.68,.66,1.83-.87,3.38-2.23,4.49-3.93,1.23-1.51,1.94-3.38,2-5.33Z"/><path class="cls-6" d="M73.21,148.03c-1.44,.03-2.84-.47-3.94-1.41-.77-.6-1.24-1.5-1.3-2.47-.06-1.8,1.46-3.35,2.81-4.73,.55-.51,1.05-1.08,1.49-1.7,1.36-2.12,5.41-5.67,8.31-4.88,1.1,.29,2.43,1.3,2.54,4.39h0c-.04,2.17-.82,4.26-2.19,5.94-1.2,1.86-2.91,3.34-4.91,4.27-.89,.38-1.85,.57-2.81,.58Zm6.42-13.28c-1.68,0-4.61,2.39-5.68,4.06-.52,.73-1.11,1.41-1.76,2.03-1.01,1.01-2.26,2.3-2.23,3.23,.04,.41,.27,.78,.61,1.01,1.33,1,3.11,1.19,4.63,.49,1.66-.8,3.06-2.04,4.06-3.58,1.1-1.32,1.74-2.97,1.81-4.69h0c0-1.01-.24-2.29-1.01-2.51-.14-.03-.28-.05-.42-.04Z"/><path class="cls-1" d="M97.17,92.45s-3.92,7.32-4.38,19.39,11.46,43.88,11.46,43.88h5.7s8.12-20.71,10.63-37.14-3.64-26.13-3.64-26.13h-19.76Z"/><path class="cls-6" d="M116.92,92.45s6.18,9.57,3.65,26.13-10.63,37.14-10.63,37.14h-5.7s-11.92-31.81-11.41-43.88,4.38-19.39,4.38-19.39h19.75m0-2.03h-19.8c-.74-.01-1.42,.38-1.79,1.01-.17,.31-4.15,7.88-4.63,20.3s11.09,43.36,11.59,44.66c.3,.79,1.05,1.31,1.9,1.31h5.7c.83,0,1.58-.51,1.89-1.29,.33-.85,8.23-21.11,10.75-37.55,2.61-17.11-3.68-27.11-3.95-27.53-.37-.58-1.02-.94-1.72-.93l.05,.02Z"/><rect class="cls-6" x="97.17" y="78.97" width="19.75" height="13.48"/><path class="cls-6" d="M116.93,93.47h-19.76c-.56,0-1.01-.45-1.01-1.01v-13.48c0-.56,.45-1.01,1.01-1.01h19.76c.56,0,1.01,.45,1.01,1.01v13.48c0,.56-.45,1.01-1.01,1.01Zm-18.75-2.03h17.73v-11.45h-17.73v11.45Z"/><polygon class="cls-2" points="94.55 59.33 77.71 75.52 82.6 102.64 91.54 80.19 96.81 78.15 94.55 59.33"/><path class="cls-6" d="M82.6,103.66h-.1c-.45-.05-.81-.39-.89-.83l-4.89-27.11c-.06-.33,.05-.68,.29-.91l16.83-16.24c.4-.39,1.04-.38,1.44,.02,.16,.16,.25,.37,.28,.59l2.27,18.82c.05,.46-.21,.9-.65,1.07l-4.86,1.89-8.77,22.04c-.14,.4-.52,.67-.94,.68Zm-3.8-27.78l4.17,23.09,7.62-19.15c.1-.26,.31-.47,.57-.57l4.55-1.77-1.94-16.01-14.97,14.4Z"/><polygon class="cls-2" points="119.55 59.33 136.39 75.52 131.48 102.64 122.55 80.19 117.28 78.15 119.55 59.33"/><path class="cls-6" d="M131.48,103.66c-.41,0-.78-.26-.93-.64l-8.78-22.04-4.86-1.89c-.43-.17-.69-.61-.64-1.07l2.27-18.82c.07-.56,.57-.95,1.13-.89,.22,.03,.43,.12,.59,.28l16.83,16.24c.24,.24,.36,.58,.29,.91l-4.89,27.11c-.08,.45-.45,.79-.9,.83l-.1-.04Zm-13.1-26.18l4.54,1.77c.26,.1,.47,.31,.58,.57l7.62,19.15,4.17-23.09-14.97-14.4-1.94,16.01Z"/><path class="cls-2" d="M121.73,84.62c3.17-15.5,5.07-32.29,5.07-43.44,0-23.88-19.79-40.15-19.79-40.15,0,0-19.78,16.24-19.78,40.15,0,11.16,1.94,27.94,5.07,43.44h29.42Z"/><path class="cls-6" d="M121.73,85.63h-29.36c-.49,0-.92-.33-1.01-.81-3.16-15.45-5.13-32.17-5.13-43.64C86.22,17.09,106.18,.4,106.38,.23c.37-.31,.91-.31,1.29,0,.2,.17,20.16,16.86,20.16,40.95,0,11.48-1.97,28.21-5.13,43.64-.09,.47-.5,.8-.97,.81Zm-28.53-2.03h27.7c2.99-14.88,4.92-31.46,4.92-42.43,0-20.69-15.4-35.76-18.78-38.8-3.37,3.05-18.77,18.12-18.77,38.8,0,10.98,1.93,27.55,4.92,42.43Z"/><circle class="cls-3" cx="107.04" cy="37.29" r="9.88"/><path class="cls-6" d="M107.04,48.18c-6.01,0-10.89-4.89-10.88-10.9,0-6.01,4.89-10.89,10.9-10.88,6.01,0,10.88,4.88,10.88,10.89-.01,6.01-4.89,10.89-10.9,10.89Zm0-19.75c-4.89,0-8.86,3.98-8.85,8.87s3.98,8.86,8.87,8.85c4.89,0,8.85-3.97,8.85-8.86,0-4.9-3.98-8.86-8.87-8.86Z"/><path class="cls-4" d="M104.24,92.74s-3.21,5.07-3.19,13.92c0,8.01,5.84,32.17,5.84,32.17,0,0,6.9-29.26,6.19-35.89s-3.28-10.15-3.28-10.15l-5.56-.04Z"/><path class="cls-6" d="M106.89,139.83c-.48,.01-.9-.31-1.01-.78-.23-1.01-5.85-24.36-5.87-32.4,0-9.06,3.21-14.21,3.34-14.46,.19-.29,.51-.47,.86-.47h5.56c.32,0,.63,.15,.82,.42,.11,.16,2.74,3.86,3.46,10.68s-5.93,35.03-6.2,36.24c-.11,.47-.53,.79-1.01,.78h.05Zm-2.03-46.08c-1.92,4.03-2.86,8.44-2.76,12.9,0,5.77,3.16,20.35,4.81,27.64,1.87-8.34,5.71-26.39,5.2-31.26-.29-3.26-1.25-6.42-2.83-9.28h-4.42Z"/><path class="cls-5" d="M62.01,84.65c-.42,0-.79-.26-.94-.65l-6.3-16.24c-.23-.51,0-1.11,.52-1.34,.51-.23,1.11,0,1.34,.52,.01,.03,.02,.05,.03,.08l6.31,16.24c.2,.52-.06,1.11-.58,1.31-.12,.05-.25,.08-.38,.08Z"/><path class="cls-5" d="M44.63,94.12c-.28,0-.54-.12-.73-.32l-19.5-20.69c-.4-.39-.4-1.04,0-1.44,0,0,0,0,0,0,.4-.39,1.04-.39,1.43,0l19.5,20.7c.39,.4,.39,1.04,0,1.43-.18,.2-.43,.31-.7,.32Z"/><path class="cls-5" d="M28.17,110.35c-.16,0-.32-.04-.46-.11l-13.19-6.69c-.5-.26-.7-.87-.45-1.37,.26-.5,.87-.7,1.37-.45h0l13.19,6.7c.5,.26,.7,.87,.44,1.37-.17,.34-.53,.55-.91,.55h0Z"/><path class="cls-5" d="M152.03,84.65c-.13,0-.25-.02-.37-.07-.52-.2-.78-.79-.58-1.31l6.31-16.24c.18-.53,.76-.81,1.29-.63,.53,.18,.81,.76,.63,1.29,0,.03-.02,.05-.03,.08l-6.3,16.24c-.16,.39-.53,.64-.95,.64Z"/><path class="cls-5" d="M169.41,94.12c-.26,0-.51-.1-.7-.28-.39-.4-.39-1.04,0-1.43l19.5-20.7c.4-.39,1.04-.39,1.43,0,.4,.39,.4,1.04,0,1.44,0,0,0,0,0,0l-19.5,20.69c-.2,.19-.46,.29-.73,.28Z"/><path class="cls-5" d="M185.88,110.35c-.38,0-.73-.22-.9-.56-.25-.5-.06-1.1,.44-1.36l13.19-6.7c.5-.26,1.12-.06,1.37,.45,.26,.5,.06,1.12-.45,1.37l-13.14,6.69c-.16,.08-.33,.12-.51,.11Z"/></g></g></svg>