<?xml version="1.0" encoding="UTF-8"?><svg id="_レイヤー_2" xmlns="http://www.w3.org/2000/svg" width="225.76" height="140.34" viewBox="0 0 225.76 140.34"><defs><style>.cls-1{fill:#68cfc3;}.cls-2{fill:#fff;}.cls-3{fill:#ffbc0e;}.cls-4{fill:#dfeaef;}.cls-5{fill:#093f68;}.cls-6{fill:#70cc40;}.cls-7{fill:#f56132;stroke:#093f68;stroke-linecap:round;stroke-linejoin:round;stroke-width:2.03px;}</style></defs><g id="_レイヤー_1-2"><g id="_502_progress_outline"><path class="cls-2" d="M13.64,12.44H213v121.55c0,2.95-2.39,5.34-5.34,5.34H18.98c-2.95,0-5.34-2.39-5.34-5.34,0,0,0-121.55,0-121.55Z"/><path class="cls-5" d="M207.67,140.34H18.98c-3.51,0-6.35-2.85-6.35-6.35V12.44c0-.56,.45-1.01,1.01-1.01H213.01c.56,0,1.01,.45,1.01,1.01v121.55c0,3.51-2.85,6.35-6.35,6.35ZM14.66,13.47v120.52c0,2.39,1.94,4.32,4.32,4.32H207.67c2.39,0,4.32-1.94,4.32-4.32V13.46H14.66Z"/><path class="cls-1" d="M18.98,1.03H207.67c2.95,0,5.34,2.39,5.34,5.34h0v6.09H13.64V6.36c0-2.95,2.39-5.34,5.34-5.34Z"/><path class="cls-5" d="M213.01,13.46H13.64c-.56,0-1.01-.45-1.01-1.01V6.35c0-3.51,2.85-6.35,6.35-6.35H207.67c3.51,0,6.35,2.85,6.35,6.35v6.09c0,.56-.45,1.01-1.01,1.01h0ZM14.66,11.43H211.99V6.35c0-2.39-1.94-4.32-4.32-4.32H18.98c-2.39,0-4.32,1.94-4.32,4.32h0v5.07Z"/><path class="cls-2" d="M36.05,116.83H190.6c2.62,0,4.74,2.12,4.74,4.74h0c0,2.62-2.12,4.74-4.74,4.74H36.05c-2.62,0-4.74-2.12-4.74-4.74h0c0-2.62,2.12-4.74,4.74-4.74Z"/><path class="cls-5" d="M190.6,127.32H36.05c-3.18,0-5.75-2.58-5.75-5.76,0-3.17,2.58-5.75,5.75-5.75H190.6c3.18,0,5.76,2.57,5.76,5.75,0,3.18-2.57,5.76-5.75,5.76h0Zm-154.54-9.44c-2.06,0-3.72,1.67-3.72,3.73,0,2.05,1.67,3.72,3.72,3.72H190.6c2.06,0,3.73-1.66,3.73-3.72s-1.66-3.73-3.72-3.73H36.05Z"/><path class="cls-1" d="M165.4,116.87H36.05c-2.62,0-4.74,2.12-4.74,4.74h0c0,2.62,2.12,4.74,4.74,4.74H165.4v-9.48Z"/><path class="cls-5" d="M165.4,127.32H36.05c-3.18,0-5.75-2.58-5.75-5.76,0-3.17,2.58-5.75,5.75-5.75H165.4c.56,0,1.01,.45,1.01,1.01v9.48c0,.56-.45,1.01-1.01,1.01Zm-129.35-9.44c-2.06,0-3.72,1.67-3.72,3.73,0,2.05,1.67,3.72,3.72,3.72H164.39v-7.45H36.05Z"/><g id="ahcQ9Z"><path class="cls-7" d="M143.22,60.92c-.06-1.58-1.17-2.92-2.71-3.27-1.31-.28-2.63-.5-3.96-.7-.37-.03-.68-.29-.78-.65-.4-1.01-.83-2.09-1.29-3.13-.15-.25-.12-.57,.07-.79,.79-1.1,1.6-2.18,2.34-3.32,.88-1.31,.75-3.06-.3-4.23-1.21-1.33-2.51-2.58-3.78-3.86-1.3-1.48-3.53-1.68-5.07-.46-.99,.68-1.98,1.38-2.95,2.1-.22,.2-.54,.23-.79,.08-1.12-.5-2.24-1.01-3.39-1.39-.28-.08-.48-.33-.51-.62-.19-1.21-.4-2.42-.6-3.62-.26-1.75-1.73-3.07-3.5-3.14-1.87-.05-3.74,0-5.59,0-1.63,.03-3.03,1.17-3.39,2.76-.29,1.36-.5,2.73-.73,4.06-.03,.29-.23,.53-.51,.62-1.1,.43-2.17,.89-3.25,1.37-.23,.14-.53,.12-.74-.06-1.08-.8-2.15-1.59-3.27-2.33-1.32-.9-3.09-.79-4.28,.27-1.42,1.3-2.8,2.66-4.06,4.06-1.28,1.3-1.38,3.35-.23,4.76,.72,1.01,1.48,2.03,2.2,3.13,.09,.17,.11,.37,.05,.56-.45,1.17-.91,2.33-1.41,3.49-.09,.17-.25,.3-.44,.36-1.21,.22-2.42,.43-3.62,.62-1.79,.19-3.18,1.65-3.28,3.45-.06,1.94-.05,3.89,0,5.84,.08,1.56,1.17,2.88,2.69,3.24,1.38,.31,2.79,.53,4.19,.76,.27,.02,.5,.21,.58,.48,.44,1.12,.91,2.2,1.4,3.3,.13,.22,.1,.51-.07,.7-.73,1.01-1.47,2.03-2.17,3.04-1.14,1.5-.96,3.63,.43,4.91,1.17,1.19,2.34,2.38,3.53,3.53,1.31,1.47,3.55,1.64,5.07,.39,1.01-.71,2.03-1.43,3.04-2.16,.19-.16,.46-.18,.67-.05,1.01,.45,2.03,.88,3.12,1.28,.33,.09,.56,.39,.58,.73,.18,1.2,.39,2.39,.59,3.57,.23,1.71,1.63,3.02,3.35,3.14,1.96,.07,3.92,.06,5.88,0,1.58-.08,2.91-1.2,3.26-2.74,.28-1.32,.49-2.66,.71-4,.02-.32,.24-.6,.55-.69,1.11-.43,2.18-.87,3.26-1.35,.23-.13,.51-.1,.71,.07,1.01,.73,2.03,1.44,3.04,2.17,.71,.51,1.57,.77,2.45,.74,.81,0,1.59-.33,2.17-.89,1.28-1.21,2.52-2.47,3.77-3.7,1.52-1.31,1.72-3.59,.46-5.15-.68-.99-1.38-1.98-2.1-2.95-.17-.2-.2-.48-.07-.71,.48-1.09,.93-2.18,1.37-3.3,.08-.28,.33-.48,.63-.5,1.21-.18,2.42-.39,3.62-.59,1.76-.24,3.09-1.7,3.17-3.47-.04-1.93-.04-3.85-.09-5.76Zm-29.91,15.8c-7.13-.01-12.9-5.8-12.89-12.93,.01-7.13,5.8-12.9,12.93-12.89,7.13,.01,12.9,5.8,12.89,12.93,0,0,0,0,0,.01-.02,7.12-5.81,12.89-12.93,12.88h0Z"/></g><path class="cls-5" d="M113.32,103.48c-.56,0-1.01-.45-1.01-1.01s.45-1.01,1.01-1.01c20.77-.02,37.59-16.85,37.62-37.62,0-.56,.45-1.01,1.01-1.01s1.01,.45,1.01,1.01c-.02,21.89-17.76,39.62-39.65,39.65Z"/><path class="cls-5" d="M74.68,64.85c-.56,0-1.01-.45-1.01-1.01,.02-21.89,17.76-39.63,39.66-39.66,.56,0,1.01,.45,1.01,1.01s-.45,1.01-1.01,1.01c-20.77,.02-37.6,16.86-37.63,37.63,0,.56-.45,1.01-1.01,1.01Z"/><path class="cls-5" d="M108.82,31.27c-.31,0-.6-.14-.79-.38-.35-.44-.29-1.07,.15-1.43,0,0,0,0,0,0l5.07-4.06-5.3-2.73c-.49-.26-.69-.86-.44-1.36,.25-.5,.86-.7,1.36-.45,0,0,0,0,0,0l6.68,3.44c.3,.16,.51,.46,.54,.8,.04,.34-.1,.68-.37,.89l-6.27,5.07c-.19,.13-.42,.2-.65,.19Z"/><path class="cls-5" d="M118.97,107.52c-.15,0-.29-.03-.43-.1l-7.32-3.39c-.31-.14-.53-.43-.58-.77-.05-.34,.08-.69,.33-.91l6.53-5.71c.44-.35,1.08-.28,1.43,.15,.33,.41,.29,1-.09,1.37l-5.35,4.69,5.9,2.74c.51,.23,.74,.83,.5,1.34-.17,.36-.53,.6-.93,.59h0Z"/><path class="cls-2" d="M1.02,59.67H61.6v36.14c0,2.29-1.86,4.15-4.15,4.15H5.17c-2.29,0-4.15-1.86-4.15-4.15,0,0,0-36.14,0-36.14Z"/><path class="cls-5" d="M57.45,100.97H5.17C2.32,100.97,0,98.66,0,95.81V59.67C0,59.11,.45,58.66,1.02,58.66H61.6c.56,0,1.01,.45,1.01,1.01v36.13c0,2.85-2.31,5.17-5.17,5.17ZM2.03,60.69v35.12c0,1.73,1.4,3.14,3.14,3.14H57.45c1.73,0,3.14-1.4,3.14-3.14V60.69H2.03Z"/><path class="cls-3" d="M5.17,53.94H57.45c2.29,0,4.15,1.86,4.15,4.15v1.56H1.02v-1.56c0-2.29,1.86-4.15,4.15-4.15Z"/><path class="cls-5" d="M61.6,60.69H1.02C.45,60.69,0,60.23,0,59.67v-1.56c0-2.86,2.31-5.18,5.17-5.19H57.45c2.85,0,5.17,2.31,5.17,5.17v1.56c.01,.56-.43,1.02-.99,1.04,0,0-.01,0-.02,0ZM2.03,58.66H60.59v-.55c0-1.73-1.4-3.14-3.14-3.14H5.17c-1.73,0-3.14,1.4-3.14,3.14v.55Z"/><path class="cls-4" d="M8.27,87.59c-.56,0-1.02-.45-1.02-1.01,0-.31,.14-.6,.38-.8l13.19-10.69c.38-.31,.92-.31,1.3,0l12.18,10.15,16.79-13.04c.46-.31,1.1-.19,1.41,.27,.29,.42,.21,1-.17,1.33l-17.5,13.62c-.37,.3-.9,.3-1.27,0l-12.12-10.15-12.54,10.15c-.19,.12-.41,.18-.64,.16Z"/><path class="cls-4" d="M53.65,78.88h-.17c-.55-.09-.92-.62-.83-1.17l1.14-6.63h-6.61c-.56,0-1.01-.45-1.01-1.01s.45-1.01,1.01-1.01h7.85c.56,0,1.02,.44,1.03,1,0,.06,0,.13-.01,.19l-1.34,7.81c-.09,.5-.54,.86-1.05,.83Z"/><path class="cls-2" d="M174.44,31.74h50.29v41.99c0,1.59-1.29,2.87-2.87,2.87h-44.55c-1.59,0-2.87-1.29-2.87-2.87V31.74h0Z"/><path class="cls-5" d="M221.87,77.62h-44.56c-2.14,0-3.88-1.74-3.89-3.89V31.74c0-.56,.45-1.01,1.01-1.01h50.3c.56,0,1.01,.45,1.01,1.01v41.99c0,2.14-1.74,3.88-3.89,3.89Zm-46.42-44.86v40.98c0,1.03,.83,1.86,1.86,1.86h44.56c1.03,0,1.86-.83,1.86-1.86V32.75h-48.27Z"/><path class="cls-6" d="M177.31,25.22h44.55c1.59,0,2.87,1.29,2.87,2.87v3.64h-50.29v-3.64c0-1.59,1.29-2.87,2.87-2.87h0Z"/><path class="cls-5" d="M224.74,32.75h-50.3c-.56,0-1.01-.45-1.01-1.01v-3.64c0-2.14,1.74-3.88,3.89-3.89h44.56c2.14,0,3.88,1.74,3.89,3.89v3.64c0,.56-.45,1.01-1.01,1.01Zm-49.29-2.03h48.27v-2.63c0-1.03-.83-1.86-1.86-1.86h-44.56c-1.03,0-1.86,.83-1.86,1.86v2.63Z"/><path class="cls-4" d="M200.6,70.24c-8.87-.01-16.06-7.2-16.07-16.07,0-.56,.45-1.01,1.01-1.01s1.01,.45,1.01,1.01c0,7.75,6.29,14.04,14.04,14.04,7.75,0,14.04-6.29,14.04-14.04,0-7.75-6.29-14.04-14.04-14.04-4.31,0-8.38,1.98-11.04,5.37-.31,.47-.94,.59-1.41,.28-.47-.31-.59-.94-.28-1.41,.03-.04,.06-.08,.09-.12,5.48-6.98,15.58-8.2,22.56-2.73s8.2,15.58,2.73,22.56c-3.05,3.88-7.71,6.15-12.65,6.15h0Z"/><path class="cls-4" d="M193.37,47.44h-.12l-5.53-.67c-.51-.06-.9-.5-.89-1.01v-5.15c0-.56,.45-1.01,1.01-1.01s1.01,.45,1.01,1.01v4.24l4.64,.56c.56,.03,.99,.52,.95,1.08s-.52,.99-1.08,.95Z"/><path class="cls-4" d="M207.47,60.97c-.24,0-.48-.09-.66-.24l-6.85-5.78c-.23-.19-.37-.48-.37-.78v-9.66c0-.56,.45-1.01,1.01-1.01s1.01,.45,1.01,1.01v9.2l6.5,5.48c.43,.36,.48,1.01,.11,1.43-.19,.22-.47,.35-.76,.36h0Z"/><path class="cls-4" d="M61.6,24.4H29.99c-.56,0-1.01-.45-1.01-1.01s.45-1.01,1.01-1.01h31.61c.56,0,1.01,.45,1.01,1.01s-.45,1.01-1.01,1.01Z"/><path class="cls-4" d="M49.4,34.92H29.99c-.56,0-1.01-.45-1.01-1.01s.45-1.01,1.01-1.01h19.41c.56,0,1.01,.45,1.01,1.01s-.45,1.01-1.01,1.01h0Z"/><path class="cls-4" d="M61.6,34.92h-6.58c-.56,0-1.01-.45-1.01-1.01s.45-1.01,1.01-1.01h6.62c.56,0,1.01,.45,1.01,1.01s-.45,1.01-1.01,1.01h-.04Z"/><path class="cls-4" d="M39.7,47.44h-9.7c-.56,0-1.01-.45-1.01-1.01s.45-1.01,1.01-1.01h9.7c.56,0,1.01,.45,1.01,1.01s-.45,1.01-1.01,1.01Z"/><path class="cls-4" d="M195.34,90.7h-39.19c-.56,0-1.01-.45-1.01-1.01s.45-1.01,1.01-1.01h39.19c.56,0,1.01,.45,1.01,1.01s-.45,1.01-1.01,1.01Z"/><path class="cls-4" d="M195.34,100.97h-17.9c-.56,0-1.01-.45-1.01-1.01s.45-1.01,1.01-1.01h17.9c.56,0,1.01,.45,1.01,1.01s-.45,1.01-1.01,1.01Z"/><path class="cls-4" d="M165.4,100.97h-9.26c-.56,0-1.01-.45-1.01-1.01s.45-1.01,1.01-1.01h9.26c.56,0,1.01,.45,1.01,1.01s-.45,1.01-1.01,1.01Z"/></g></g></svg>