<?xml version="1.0" encoding="UTF-8"?><svg id="_レイヤー_2" xmlns="http://www.w3.org/2000/svg" width="930.68" height="321.54" viewBox="0 0 930.68 321.54"><defs><style>.cls-1{fill:#68cfc3;}.cls-2{fill:#231815;}.cls-3{fill:none;stroke:#000;}</style></defs><g id="_レイヤー_1-2"><rect class="cls-1" x="780.68" width="150" height="168"/><g><g><path class="cls-2" d="M0,159.09L48.55,12.44h26.66l48.55,146.65h-24.48l-12.34-41.79H36.02l-12.54,41.79H0Zm41.39-59.9h40l-5.77-19.7c-3.58-11.41-8.16-27.66-13.73-48.75h-1c-3.58,14.59-8.09,30.84-13.53,48.75l-5.97,19.7Z"/><path class="cls-2" d="M141.08,159.09V.5h22.49V102.58h.8l42.38-52.93h25.47l-37.01,44.57,41.19,64.87h-24.87l-29.65-49.55-18.31,21.09v28.46h-22.49Z"/><path class="cls-2" d="M256.59,25.38c-2.59-2.52-3.88-5.84-3.88-9.95s1.29-7.39,3.88-9.85c2.59-2.45,6-3.68,10.25-3.68s7.69,1.23,10.35,3.68c2.65,2.46,3.98,5.74,3.98,9.85s-1.33,7.43-3.98,9.95c-2.66,2.52-6.1,3.78-10.35,3.78s-7.66-1.26-10.25-3.78Zm-1.09,133.72V49.65h22.88v109.44h-22.88Z"/><path class="cls-2" d="M323.95,151.63c-5.17-6.7-7.76-16.15-7.76-28.36v-55.32h-15.92v-17.11l17.11-1.19,2.59-30.25h19.1v30.25h28.46v18.31h-28.46v55.52c0,6.77,1.26,11.77,3.78,15.02,2.52,3.25,6.57,4.88,12.14,4.88,3.85,0,7.76-.86,11.74-2.59l4.18,16.91c-8.23,2.65-15.39,3.98-21.49,3.98-11.81,0-20.3-3.35-25.47-10.05Z"/><path class="cls-2" d="M409.61,154.82c-7.89-4.58-14.2-11.21-18.9-19.9-4.71-8.69-7.06-18.87-7.06-30.54s2.35-21.89,7.06-30.64c4.71-8.76,11.01-15.42,18.9-20,7.89-4.58,16.42-6.87,25.57-6.87s17.68,2.29,25.57,6.87c7.89,4.58,14.19,11.24,18.9,20,4.71,8.76,7.06,18.97,7.06,30.64s-2.36,21.86-7.06,30.54c-4.71,8.69-11.01,15.32-18.9,19.9-7.89,4.58-16.42,6.87-25.57,6.87s-17.68-2.29-25.57-6.87Zm46.07-22.39c5.04-7.03,7.56-16.38,7.56-28.06s-2.52-21.02-7.56-28.06c-5.04-7.03-11.87-10.55-20.5-10.55s-15.26,3.52-20.3,10.55c-5.04,7.03-7.56,16.39-7.56,28.06s2.52,21.03,7.56,28.06c5.04,7.03,11.81,10.55,20.3,10.55s15.45-3.51,20.5-10.55Z"/><path class="cls-2" d="M521.34,157.5c-7.3-2.79-13.73-6.43-19.3-10.94l10.75-14.73c5.3,4.11,10.41,7.23,15.32,9.35,4.91,2.12,10.15,3.18,15.72,3.18,6.37,0,11.17-1.36,14.43-4.08,3.25-2.72,4.88-6.27,4.88-10.65,0-3.05-1.09-5.7-3.28-7.96-2.19-2.25-4.81-4.08-7.86-5.47-3.05-1.39-7.36-3.21-12.93-5.47-9.42-3.58-16.91-7.73-22.49-12.44-5.57-4.71-8.36-11.17-8.36-19.4,0-6.1,1.59-11.57,4.78-16.42,3.18-4.84,7.69-8.66,13.53-11.44,5.84-2.79,12.73-4.18,20.69-4.18,12.74,0,24.54,4.31,35.42,12.93l-10.75,14.13c-4.11-3.05-8.13-5.4-12.04-7.06-3.91-1.66-7.99-2.49-12.24-2.49-5.84,0-10.25,1.26-13.23,3.78-2.98,2.52-4.48,5.77-4.48,9.75,0,2.92,.99,5.37,2.98,7.36,1.99,1.99,4.38,3.65,7.16,4.97,2.79,1.33,6.96,2.98,12.54,4.97,6.77,2.52,12.3,4.97,16.62,7.36,4.31,2.39,7.99,5.71,11.04,9.95,3.05,4.25,4.58,9.55,4.58,15.92s-1.63,11.87-4.88,16.91c-3.25,5.04-7.99,9.02-14.23,11.94-6.24,2.92-13.73,4.38-22.49,4.38-7.3,0-14.59-1.39-21.89-4.18Z"/><path class="cls-2" d="M609.09,.5h22.88V42.49l-1,21.69c5.7-5.44,11.34-9.68,16.91-12.73,5.57-3.05,11.74-4.58,18.51-4.58,22.42,0,33.63,14.46,33.63,43.38v68.85h-22.88V93.03c0-9.42-1.46-16.18-4.38-20.3-2.92-4.11-7.63-6.17-14.13-6.17-4.78,0-9.12,1.16-13.03,3.48-3.91,2.32-8.46,6.14-13.63,11.44v77.6h-22.88V.5Z"/><path class="cls-2" d="M733.75,25.38c-2.59-2.52-3.88-5.84-3.88-9.95s1.29-7.39,3.88-9.85c2.59-2.45,6-3.68,10.25-3.68s7.69,1.23,10.35,3.68c2.65,2.46,3.98,5.74,3.98,9.85s-1.33,7.43-3.98,9.95c-2.66,2.52-6.1,3.78-10.35,3.78s-7.66-1.26-10.25-3.78Zm-1.09,133.72V49.65h22.88v109.44h-22.88Z"/></g><g><path class="cls-3" d="M0,159.09L48.55,12.44h26.66l48.55,146.65h-24.48l-12.34-41.79H36.02l-12.54,41.79H0Zm41.39-59.9h40l-5.77-19.7c-3.58-11.41-8.16-27.66-13.73-48.75h-1c-3.58,14.59-8.09,30.84-13.53,48.75l-5.97,19.7Z"/><path class="cls-3" d="M141.08,159.09V.5h22.49V102.58h.8l42.38-52.93h25.47l-37.01,44.57,41.19,64.87h-24.87l-29.65-49.55-18.31,21.09v28.46h-22.49Z"/><path class="cls-3" d="M256.59,25.38c-2.59-2.52-3.88-5.84-3.88-9.95s1.29-7.39,3.88-9.85c2.59-2.45,6-3.68,10.25-3.68s7.69,1.23,10.35,3.68c2.65,2.46,3.98,5.74,3.98,9.85s-1.33,7.43-3.98,9.95c-2.66,2.52-6.1,3.78-10.35,3.78s-7.66-1.26-10.25-3.78Zm-1.09,133.72V49.65h22.88v109.44h-22.88Z"/><path class="cls-3" d="M323.95,151.63c-5.17-6.7-7.76-16.15-7.76-28.36v-55.32h-15.92v-17.11l17.11-1.19,2.59-30.25h19.1v30.25h28.46v18.31h-28.46v55.52c0,6.77,1.26,11.77,3.78,15.02,2.52,3.25,6.57,4.88,12.14,4.88,3.85,0,7.76-.86,11.74-2.59l4.18,16.91c-8.23,2.65-15.39,3.98-21.49,3.98-11.81,0-20.3-3.35-25.47-10.05Z"/><path class="cls-3" d="M409.61,154.82c-7.89-4.58-14.2-11.21-18.9-19.9-4.71-8.69-7.06-18.87-7.06-30.54s2.35-21.89,7.06-30.64c4.71-8.76,11.01-15.42,18.9-20,7.89-4.58,16.42-6.87,25.57-6.87s17.68,2.29,25.57,6.87c7.89,4.58,14.19,11.24,18.9,20,4.71,8.76,7.06,18.97,7.06,30.64s-2.36,21.86-7.06,30.54c-4.71,8.69-11.01,15.32-18.9,19.9-7.89,4.58-16.42,6.87-25.57,6.87s-17.68-2.29-25.57-6.87Zm46.07-22.39c5.04-7.03,7.56-16.38,7.56-28.06s-2.52-21.02-7.56-28.06c-5.04-7.03-11.87-10.55-20.5-10.55s-15.26,3.52-20.3,10.55c-5.04,7.03-7.56,16.39-7.56,28.06s2.52,21.03,7.56,28.06c5.04,7.03,11.81,10.55,20.3,10.55s15.45-3.51,20.5-10.55Z"/><path class="cls-3" d="M521.34,157.5c-7.3-2.79-13.73-6.43-19.3-10.94l10.75-14.73c5.3,4.11,10.41,7.23,15.32,9.35,4.91,2.12,10.15,3.18,15.72,3.18,6.37,0,11.17-1.36,14.43-4.08,3.25-2.72,4.88-6.27,4.88-10.65,0-3.05-1.09-5.7-3.28-7.96-2.19-2.25-4.81-4.08-7.86-5.47-3.05-1.39-7.36-3.21-12.93-5.47-9.42-3.58-16.91-7.73-22.49-12.44-5.57-4.71-8.36-11.17-8.36-19.4,0-6.1,1.59-11.57,4.78-16.42,3.18-4.84,7.69-8.66,13.53-11.44,5.84-2.79,12.73-4.18,20.69-4.18,12.74,0,24.54,4.31,35.42,12.93l-10.75,14.13c-4.11-3.05-8.13-5.4-12.04-7.06-3.91-1.66-7.99-2.49-12.24-2.49-5.84,0-10.25,1.26-13.23,3.78-2.98,2.52-4.48,5.77-4.48,9.75,0,2.92,.99,5.37,2.98,7.36,1.99,1.99,4.38,3.65,7.16,4.97,2.79,1.33,6.96,2.98,12.54,4.97,6.77,2.52,12.3,4.97,16.62,7.36,4.31,2.39,7.99,5.71,11.04,9.95,3.05,4.25,4.58,9.55,4.58,15.92s-1.63,11.87-4.88,16.91c-3.25,5.04-7.99,9.02-14.23,11.94-6.24,2.92-13.73,4.38-22.49,4.38-7.3,0-14.59-1.39-21.89-4.18Z"/><path class="cls-3" d="M609.09,.5h22.88V42.49l-1,21.69c5.7-5.44,11.34-9.68,16.91-12.73,5.57-3.05,11.74-4.58,18.51-4.58,22.42,0,33.63,14.46,33.63,43.38v68.85h-22.88V93.03c0-9.42-1.46-16.18-4.38-20.3-2.92-4.11-7.63-6.17-14.13-6.17-4.78,0-9.12,1.16-13.03,3.48-3.91,2.32-8.46,6.14-13.63,11.44v77.6h-22.88V.5Z"/><path class="cls-3" d="M733.75,25.38c-2.59-2.52-3.88-5.84-3.88-9.95s1.29-7.39,3.88-9.85c2.59-2.45,6-3.68,10.25-3.68s7.69,1.23,10.35,3.68c2.65,2.46,3.98,5.74,3.98,9.85s-1.33,7.43-3.98,9.95c-2.66,2.52-6.1,3.78-10.35,3.78s-7.66-1.26-10.25-3.78Zm-1.09,133.72V49.65h22.88v109.44h-22.88Z"/></g></g><g><g><path class="cls-2" d="M43.98,263.44L0,172.3H24.67l16.91,39,1.99,4.78c3.05,7.43,6.96,16.58,11.74,27.46h.8l5.37-12.14c.93-2.25,2.12-5.04,3.58-8.36,1.46-3.31,3.12-7.23,4.97-11.74l17.11-39h24.08l-44.17,91.14v55.52h-23.08v-55.52Z"/><path class="cls-2" d="M130.53,312.89c-5.97-5.77-8.95-13.43-8.95-22.98,0-11.67,5.2-20.73,15.62-27.16,10.41-6.43,27.03-10.91,49.85-13.43-.27-15.92-7.23-23.88-20.89-23.88-9.42,0-19.97,3.72-31.64,11.14l-8.56-15.52c15.12-9.55,29.85-14.33,44.18-14.33,13.4,0,23.38,4.01,29.95,12.04,6.57,8.03,9.85,19.47,9.85,34.33v65.86h-18.7l-1.79-12.54h-.8c-11.67,10.08-23.28,15.12-34.82,15.12-9.55,0-17.31-2.89-23.28-8.66Zm43.18-12.54c4.11-2.06,8.56-5.27,13.33-9.65v-26.86c-15.65,1.86-26.8,4.78-33.43,8.76-6.63,3.98-9.95,9.22-9.95,15.72,0,5.17,1.56,8.99,4.68,11.44,3.12,2.46,7.26,3.68,12.44,3.68,4.51,0,8.82-1.03,12.93-3.08Z"/><path class="cls-2" d="M242.36,209.52h18.7l1.79,15.32h.6c5.3-5.57,10.71-9.98,16.22-13.23,5.5-3.25,11.37-4.88,17.61-4.88,15.12,0,25.2,6.7,30.25,20.1,5.97-6.5,11.81-11.47,17.51-14.92,5.7-3.45,11.74-5.17,18.11-5.17,11.27,0,19.7,3.68,25.27,11.04s8.36,18.14,8.36,32.34v68.85h-22.88v-66.06c0-9.28-1.49-16.02-4.48-20.2-2.98-4.18-7.6-6.27-13.83-6.27-7.3,0-15.52,4.97-24.67,14.92v77.6h-22.88v-66.06c0-9.42-1.46-16.18-4.38-20.3-2.92-4.11-7.56-6.17-13.93-6.17-7.3,0-15.46,4.97-24.48,14.92v77.6h-22.88v-109.44Z"/><path class="cls-2" d="M432.39,312.89c-5.97-5.77-8.95-13.43-8.95-22.98,0-11.67,5.2-20.73,15.62-27.16,10.41-6.43,27.03-10.91,49.85-13.43-.27-15.92-7.23-23.88-20.89-23.88-9.42,0-19.97,3.72-31.64,11.14l-8.56-15.52c15.12-9.55,29.85-14.33,44.18-14.33,13.4,0,23.38,4.01,29.95,12.04,6.57,8.03,9.85,19.47,9.85,34.33v65.86h-18.7l-1.79-12.54h-.8c-11.67,10.08-23.28,15.12-34.82,15.12-9.55,0-17.31-2.89-23.28-8.66Zm43.18-12.54c4.11-2.06,8.56-5.27,13.33-9.65v-26.86c-15.65,1.86-26.8,4.78-33.43,8.76-6.63,3.98-9.95,9.22-9.95,15.72,0,5.17,1.56,8.99,4.68,11.44,3.12,2.46,7.26,3.68,12.44,3.68,4.51,0,8.82-1.03,12.93-3.08Z"/><path class="cls-2" d="M534.27,318.96v-12.34l54.12-78.8h-48.15v-18.31h76.81v12.14l-53.93,79h55.72v18.31h-84.57Z"/><path class="cls-2" d="M644.31,312.89c-5.97-5.77-8.95-13.43-8.95-22.98,0-11.67,5.2-20.73,15.62-27.16,10.41-6.43,27.03-10.91,49.85-13.43-.27-15.92-7.23-23.88-20.89-23.88-9.42,0-19.97,3.72-31.64,11.14l-8.56-15.52c15.12-9.55,29.85-14.33,44.18-14.33,13.4,0,23.38,4.01,29.95,12.04,6.57,8.03,9.85,19.47,9.85,34.33v65.86h-18.7l-1.79-12.54h-.8c-11.67,10.08-23.28,15.12-34.82,15.12-9.55,0-17.31-2.89-23.28-8.66Zm43.18-12.54c4.11-2.06,8.56-5.27,13.33-9.65v-26.86c-15.65,1.86-26.8,4.78-33.43,8.76-6.63,3.98-9.95,9.22-9.95,15.72,0,5.17,1.56,8.99,4.68,11.44,3.12,2.46,7.26,3.68,12.44,3.68,4.51,0,8.82-1.03,12.93-3.08Z"/><path class="cls-2" d="M767.48,311.5c-5.17-6.7-7.76-16.15-7.76-28.36v-55.32h-15.92v-17.11l17.11-1.19,2.59-30.25h19.1v30.25h28.46v18.31h-28.46v55.52c0,6.77,1.26,11.77,3.78,15.02,2.52,3.25,6.57,4.88,12.14,4.88,3.85,0,7.76-.86,11.74-2.59l4.18,16.91c-8.23,2.65-15.39,3.98-21.49,3.98-11.81,0-20.3-3.35-25.47-10.05Z"/><path class="cls-2" d="M853.15,314.68c-7.89-4.58-14.2-11.21-18.9-19.9-4.71-8.69-7.06-18.87-7.06-30.54s2.35-21.89,7.06-30.64c4.71-8.76,11.01-15.42,18.9-20,7.89-4.58,16.42-6.87,25.57-6.87s17.67,2.29,25.57,6.87c7.89,4.58,14.19,11.24,18.9,20,4.71,8.76,7.06,18.97,7.06,30.64s-2.36,21.86-7.06,30.54c-4.71,8.69-11.01,15.32-18.9,19.9-7.89,4.58-16.42,6.87-25.57,6.87s-17.68-2.29-25.57-6.87Zm46.07-22.39c5.04-7.03,7.56-16.38,7.56-28.06s-2.52-21.02-7.56-28.06c-5.04-7.03-11.87-10.55-20.5-10.55s-15.26,3.52-20.3,10.55c-5.04,7.03-7.56,16.39-7.56,28.06s2.52,21.03,7.56,28.06c5.04,7.03,11.81,10.55,20.3,10.55s15.45-3.51,20.5-10.55Z"/></g><g><path class="cls-3" d="M43.98,263.44L0,172.3H24.67l16.91,39,1.99,4.78c3.05,7.43,6.96,16.58,11.74,27.46h.8l5.37-12.14c.93-2.25,2.12-5.04,3.58-8.36,1.46-3.31,3.12-7.23,4.97-11.74l17.11-39h24.08l-44.17,91.14v55.52h-23.08v-55.52Z"/><path class="cls-3" d="M130.53,312.89c-5.97-5.77-8.95-13.43-8.95-22.98,0-11.67,5.2-20.73,15.62-27.16,10.41-6.43,27.03-10.91,49.85-13.43-.27-15.92-7.23-23.88-20.89-23.88-9.42,0-19.97,3.72-31.64,11.14l-8.56-15.52c15.12-9.55,29.85-14.33,44.18-14.33,13.4,0,23.38,4.01,29.95,12.04,6.57,8.03,9.85,19.47,9.85,34.33v65.86h-18.7l-1.79-12.54h-.8c-11.67,10.08-23.28,15.12-34.82,15.12-9.55,0-17.31-2.89-23.28-8.66Zm43.18-12.54c4.11-2.06,8.56-5.27,13.33-9.65v-26.86c-15.65,1.86-26.8,4.78-33.43,8.76-6.63,3.98-9.95,9.22-9.95,15.72,0,5.17,1.56,8.99,4.68,11.44,3.12,2.46,7.26,3.68,12.44,3.68,4.51,0,8.82-1.03,12.93-3.08Z"/><path class="cls-3" d="M242.36,209.52h18.7l1.79,15.32h.6c5.3-5.57,10.71-9.98,16.22-13.23,5.5-3.25,11.37-4.88,17.61-4.88,15.12,0,25.2,6.7,30.25,20.1,5.97-6.5,11.81-11.47,17.51-14.92,5.7-3.45,11.74-5.17,18.11-5.17,11.27,0,19.7,3.68,25.27,11.04s8.36,18.14,8.36,32.34v68.85h-22.88v-66.06c0-9.28-1.49-16.02-4.48-20.2-2.98-4.18-7.6-6.27-13.83-6.27-7.3,0-15.52,4.97-24.67,14.92v77.6h-22.88v-66.06c0-9.42-1.46-16.18-4.38-20.3-2.92-4.11-7.56-6.17-13.93-6.17-7.3,0-15.46,4.97-24.48,14.92v77.6h-22.88v-109.44Z"/><path class="cls-3" d="M432.39,312.89c-5.97-5.77-8.95-13.43-8.95-22.98,0-11.67,5.2-20.73,15.62-27.16,10.41-6.43,27.03-10.91,49.85-13.43-.27-15.92-7.23-23.88-20.89-23.88-9.42,0-19.97,3.72-31.64,11.14l-8.56-15.52c15.12-9.55,29.85-14.33,44.18-14.33,13.4,0,23.38,4.01,29.95,12.04,6.57,8.03,9.85,19.47,9.85,34.33v65.86h-18.7l-1.79-12.54h-.8c-11.67,10.08-23.28,15.12-34.82,15.12-9.55,0-17.31-2.89-23.28-8.66Zm43.18-12.54c4.11-2.06,8.56-5.27,13.33-9.65v-26.86c-15.65,1.86-26.8,4.78-33.43,8.76-6.63,3.98-9.95,9.22-9.95,15.72,0,5.17,1.56,8.99,4.68,11.44,3.12,2.46,7.26,3.68,12.44,3.68,4.51,0,8.82-1.03,12.93-3.08Z"/><path class="cls-3" d="M534.27,318.96v-12.34l54.12-78.8h-48.15v-18.31h76.81v12.14l-53.93,79h55.72v18.31h-84.57Z"/><path class="cls-3" d="M644.31,312.89c-5.97-5.77-8.95-13.43-8.95-22.98,0-11.67,5.2-20.73,15.62-27.16,10.41-6.43,27.03-10.91,49.85-13.43-.27-15.92-7.23-23.88-20.89-23.88-9.42,0-19.97,3.72-31.64,11.14l-8.56-15.52c15.12-9.55,29.85-14.33,44.18-14.33,13.4,0,23.38,4.01,29.95,12.04,6.57,8.03,9.85,19.47,9.85,34.33v65.86h-18.7l-1.79-12.54h-.8c-11.67,10.08-23.28,15.12-34.82,15.12-9.55,0-17.31-2.89-23.28-8.66Zm43.18-12.54c4.11-2.06,8.56-5.27,13.33-9.65v-26.86c-15.65,1.86-26.8,4.78-33.43,8.76-6.63,3.98-9.95,9.22-9.95,15.72,0,5.17,1.56,8.99,4.68,11.44,3.12,2.46,7.26,3.68,12.44,3.68,4.51,0,8.82-1.03,12.93-3.08Z"/><path class="cls-3" d="M767.48,311.5c-5.17-6.7-7.76-16.15-7.76-28.36v-55.32h-15.92v-17.11l17.11-1.19,2.59-30.25h19.1v30.25h28.46v18.31h-28.46v55.52c0,6.77,1.26,11.77,3.78,15.02,2.52,3.25,6.57,4.88,12.14,4.88,3.85,0,7.76-.86,11.74-2.59l4.18,16.91c-8.23,2.65-15.39,3.98-21.49,3.98-11.81,0-20.3-3.35-25.47-10.05Z"/><path class="cls-3" d="M853.15,314.68c-7.89-4.58-14.2-11.21-18.9-19.9-4.71-8.69-7.06-18.87-7.06-30.54s2.35-21.89,7.06-30.64c4.71-8.76,11.01-15.42,18.9-20,7.89-4.58,16.42-6.87,25.57-6.87s17.67,2.29,25.57,6.87c7.89,4.58,14.19,11.24,18.9,20,4.71,8.76,7.06,18.97,7.06,30.64s-2.36,21.86-7.06,30.54c-4.71,8.69-11.01,15.32-18.9,19.9-7.89,4.58-16.42,6.87-25.57,6.87s-17.68-2.29-25.57-6.87Zm46.07-22.39c5.04-7.03,7.56-16.38,7.56-28.06s-2.52-21.02-7.56-28.06c-5.04-7.03-11.87-10.55-20.5-10.55s-15.26,3.52-20.3,10.55c-5.04,7.03-7.56,16.39-7.56,28.06s2.52,21.03,7.56,28.06c5.04,7.03,11.81,10.55,20.3,10.55s15.45-3.51,20.5-10.55Z"/></g></g></g></svg>