<?xml version="1.0" encoding="UTF-8"?><svg id="_レイヤー_2" xmlns="http://www.w3.org/2000/svg" width="629.48" height="127.01" viewBox="0 0 629.48 127.01"><g id="_レイヤー_4"><g><path d="M34.41,11.27c28.91,0,43.37,11.47,43.37,34.42,0,11.94-3.88,20.96-11.65,27.08-7.77,6.12-18.13,9.18-31.1,9.18H17.9v43.06H0V11.27H34.41Zm-1.08,56.33c9.16,0,15.92-1.77,20.29-5.32,4.37-3.55,6.56-9.08,6.56-16.59s-2.24-12.32-6.71-15.36c-4.48-3.03-11.4-4.55-20.76-4.55h-14.82v41.82h15.43Z"/><path d="M104.42,121.69c-6.12-3.55-11.01-8.69-14.66-15.43-3.65-6.74-5.48-14.63-5.48-23.69s1.83-16.98,5.48-23.77c3.65-6.79,8.54-11.96,14.66-15.51,6.12-3.55,12.73-5.32,19.83-5.32s13.71,1.77,19.83,5.32c6.12,3.55,11.01,8.72,14.66,15.51,3.65,6.79,5.48,14.71,5.48,23.77s-1.83,16.95-5.48,23.69c-3.65,6.74-8.54,11.88-14.66,15.43-6.12,3.55-12.73,5.32-19.83,5.32s-13.71-1.77-19.83-5.32Zm35.73-17.36c3.91-5.45,5.86-12.71,5.86-21.76s-1.96-16.31-5.86-21.76c-3.91-5.45-9.21-8.18-15.9-8.18s-11.83,2.73-15.74,8.18c-3.91,5.45-5.86,12.71-5.86,21.76s1.95,16.31,5.86,21.76c3.91,5.45,9.16,8.18,15.74,8.18s11.98-2.73,15.9-8.18Z"/><path d="M183.06,40.12h14.51l1.39,15.28h.46c2.98-5.45,6.61-9.72,10.88-12.81,4.27-3.09,8.67-4.63,13.19-4.63,3.7,0,6.89,.62,9.57,1.85l-3.24,15.43c-2.99-.93-5.81-1.39-8.49-1.39-3.91,0-7.69,1.47-11.34,4.4-3.65,2.93-6.71,7.54-9.18,13.81v52.93h-17.75V40.12Z"/><path d="M263.97,119.22c-4.01-5.19-6.02-12.52-6.02-21.99V54.32h-12.35v-13.27l13.27-.93,2.01-23.46h14.82v23.46h22.07v14.2h-22.07v43.06c0,5.25,.98,9.13,2.93,11.65,1.95,2.52,5.09,3.78,9.41,3.78,2.98,0,6.02-.67,9.11-2.01l3.24,13.12c-6.38,2.06-11.94,3.09-16.67,3.09-9.16,0-15.74-2.6-19.75-7.79Z"/><path d="M326.22,54.32h-11.57v-13.27l11.57-.93v-10.65c0-9.16,2.18-16.36,6.56-21.61,4.37-5.25,11.13-7.87,20.29-7.87,5.35,0,10.34,.93,14.97,2.78l-3.55,13.43c-3.19-1.44-6.28-2.16-9.26-2.16-7.51,0-11.27,5.09-11.27,15.28v10.8h17.13v14.2h-17.13V125h-17.75V54.32Z"/><path d="M389.65,121.69c-6.12-3.55-11.01-8.69-14.66-15.43-3.65-6.74-5.48-14.63-5.48-23.69s1.82-16.98,5.48-23.77c3.65-6.79,8.54-11.96,14.66-15.51,6.12-3.55,12.73-5.32,19.83-5.32s13.71,1.77,19.83,5.32c6.12,3.55,11.01,8.72,14.66,15.51,3.65,6.79,5.48,14.71,5.48,23.77s-1.83,16.95-5.48,23.69c-3.65,6.74-8.54,11.88-14.66,15.43-6.12,3.55-12.73,5.32-19.83,5.32s-13.71-1.77-19.83-5.32Zm35.73-17.36c3.91-5.45,5.86-12.71,5.86-21.76s-1.96-16.31-5.86-21.76c-3.91-5.45-9.21-8.18-15.9-8.18s-11.83,2.73-15.74,8.18c-3.91,5.45-5.86,12.71-5.86,21.76s1.95,16.31,5.86,21.76c3.91,5.45,9.16,8.18,15.74,8.18s11.98-2.73,15.9-8.18Z"/><path d="M471.45,121.45c-2.78-3.7-4.17-9.16-4.17-16.36V2.01h17.75V106.02c0,2.26,.38,3.91,1.16,4.94,.77,1.03,1.78,1.54,3.01,1.54,.93,0,1.9-.1,2.93-.31l2.32,13.43c-2.57,.93-5.76,1.39-9.57,1.39-6.17,0-10.65-1.85-13.43-5.56Z"/><path d="M517.12,21.3c-2.01-1.95-3.01-4.53-3.01-7.72s1-5.73,3.01-7.64c2.01-1.9,4.65-2.85,7.95-2.85s5.97,.95,8.03,2.85c2.06,1.91,3.09,4.45,3.09,7.64s-1.03,5.76-3.09,7.72c-2.06,1.96-4.73,2.93-8.03,2.93s-5.94-.98-7.95-2.93Zm-.85,103.71V40.12h17.75V125h-17.75Z"/><path d="M569.68,121.69c-6.12-3.55-11.01-8.69-14.66-15.43-3.65-6.74-5.48-14.63-5.48-23.69s1.83-16.98,5.48-23.77c3.65-6.79,8.54-11.96,14.66-15.51,6.12-3.55,12.73-5.32,19.83-5.32s13.71,1.77,19.83,5.32c6.12,3.55,11.01,8.72,14.66,15.51,3.65,6.79,5.48,14.71,5.48,23.77s-1.83,16.95-5.48,23.69c-3.65,6.74-8.54,11.88-14.66,15.43-6.12,3.55-12.73,5.32-19.83,5.32s-13.71-1.77-19.83-5.32Zm35.73-17.36c3.91-5.45,5.86-12.71,5.86-21.76s-1.96-16.31-5.86-21.76c-3.91-5.45-9.21-8.18-15.9-8.18s-11.83,2.73-15.74,8.18c-3.91,5.45-5.86,12.71-5.86,21.76s1.95,16.31,5.86,21.76c3.91,5.45,9.16,8.18,15.74,8.18s11.98-2.73,15.9-8.18Z"/></g></g></svg>